<?xml version="1.0" standalone="no"?>
<!DOCTYPE svg PUBLIC "-//W3C//DTD SVG 20010904//EN"
 "http://www.w3.org/TR/2001/REC-SVG-20010904/DTD/svg10.dtd">
<svg version="1.0" xmlns="http://www.w3.org/2000/svg"
 width="149.000000pt" height="244.000000pt" viewBox="0 0 149.000000 244.000000"
 preserveAspectRatio="xMidYMid meet">
<metadata>
Created by potrace 1.10, written by Peter Selinger 2001-2011
</metadata>
<g transform="translate(0.000000,244.000000) scale(0.100000,-0.100000)"
fill="#000000" stroke="none">
<path d="M583 2325 c-6 -14 -7 -27 -3 -30 5 -3 10 0 12 6 4 12 208 22 208 9 0
-4 15 -10 33 -13 42 -7 107 -45 107 -63 0 -8 5 -14 10 -14 6 0 10 -8 10 -18 0
-9 9 -23 20 -30 11 -7 20 -20 20 -30 0 -9 7 -30 15 -46 8 -15 15 -41 15 -56 0
-33 9 -60 20 -60 12 0 -1 93 -16 115 -8 11 -14 32 -14 47 0 17 -8 33 -20 40
-11 7 -20 21 -20 30 0 10 -4 18 -9 18 -5 0 -12 8 -15 18 -7 20 -76 62 -104 62
-10 0 -26 6 -36 13 -18 13 -162 15 -193 2 -7 -2 -13 2 -13 10 0 23 -14 18 -27
-10z"/>
<path d="M503 2278 c-4 -7 -8 -15 -9 -18 -3 -16 -20 -49 -40 -75 -15 -21 -21
-38 -17 -58 3 -15 0 -33 -6 -41 -8 -10 -9 -15 -1 -18 11 -3 -4 -60 -37 -138
-10 -23 -11 -36 -4 -38 16 -5 13 -46 -5 -86 -16 -33 -16 -35 11 -90 30 -62 82
-113 98 -97 5 5 15 7 22 5 13 -5 2 -101 -15 -135 -6 -10 -10 -28 -10 -41 0
-13 -10 -52 -21 -88 -31 -97 -49 -168 -49 -193 0 -13 -9 -40 -20 -62 -23 -45
-17 -61 10 -25 10 13 21 48 25 78 4 30 15 79 26 111 10 31 19 63 19 71 0 8 7
28 15 44 8 15 15 40 15 55 0 14 7 51 15 81 8 30 15 70 15 88 0 31 -2 32 -33
30 -43 -3 -52 4 -87 65 -30 52 -38 91 -21 101 15 10 23 76 11 91 -8 9 -8 19
-1 32 19 36 42 125 45 178 3 62 47 141 72 131 8 -3 14 -1 14 4 0 6 -7 10 -15
10 -21 0 -19 20 3 21 9 1 20 1 25 0 4 0 7 4 7 9 0 14 -47 12 -57 -2z"/>
<path d="M749 2278 c-6 -16 -5 -68 1 -68 11 0 18 60 8 66 -4 3 -8 4 -9 2z"/>
<path d="M603 2132 c-8 -5 -3 -11 13 -19 21 -10 24 -9 24 8 0 20 -16 24 -37
11z"/>
<path d="M786 2113 c-3 -3 -6 -15 -6 -25 0 -19 -10 -23 -25 -9 -6 5 -27 12
-47 15 -31 6 -39 3 -48 -14 -12 -22 -32 -28 -28 -8 5 23 -40 21 -52 -2 -14
-27 -13 -29 33 -32 35 -2 48 6 59 34 2 4 24 2 51 -3 36 -8 47 -15 47 -30 0
-10 5 -19 11 -19 6 0 8 9 4 20 -4 12 0 31 9 45 14 22 8 44 -8 28z"/>
<path d="M804 2065 c-10 -25 4 -45 31 -45 25 0 31 13 19 44 -8 20 -43 21 -50
1z"/>
<path d="M520 2022 c0 -5 -12 -14 -26 -21 -14 -6 -24 -17 -21 -24 2 -6 -7 -28
-20 -47 -27 -40 -29 -58 -8 -66 9 -4 15 -19 15 -41 0 -38 38 -116 52 -107 4 3
0 16 -11 30 -11 14 -22 44 -26 67 -3 23 -11 52 -17 64 -8 17 -6 27 11 51 11
17 21 34 21 39 0 5 14 20 31 32 23 17 41 22 69 19 21 -2 36 0 34 4 -7 11 -104
10 -104 0z"/>
<path d="M841 1994 c7 -8 26 -22 42 -30 37 -20 67 -85 67 -150 0 -48 -4 -56
-43 -98 -24 -25 -38 -46 -32 -46 19 0 84 76 91 107 9 34 -9 123 -32 158 -16
24 -84 75 -100 75 -4 0 -1 -7 7 -16z"/>
<path d="M982 1985 c2 -5 12 -27 23 -48 12 -23 15 -41 10 -45 -12 -8 -36 -74
-30 -80 2 -2 13 11 25 29 26 42 22 102 -10 133 -12 12 -21 17 -18 11z"/>
<path d="M1049 1955 c-5 -50 4 -79 32 -102 41 -35 39 -80 -7 -171 -20 -40 -39
-72 -43 -73 -61 -8 -91 3 -91 33 0 9 -4 20 -10 23 -6 3 -10 -5 -10 -19 0 -48
87 -77 128 -43 22 18 70 129 77 177 6 42 4 47 -29 79 -26 25 -33 38 -26 50 5
10 3 26 -6 41 -12 23 -13 23 -15 5z"/>
<path d="M643 1920 c-16 -7 -23 -18 -23 -38 0 -32 29 -81 30 -50 0 9 5 20 12
24 7 5 9 1 6 -13 -3 -12 -2 -27 3 -34 10 -16 -7 -39 -30 -39 -20 0 -24 -31 -9
-82 12 -42 33 -53 82 -44 28 5 38 16 64 67 29 55 30 61 12 56 -11 -3 -20 -1
-20 4 0 5 -4 9 -10 9 -6 0 -6 -8 1 -23 7 -16 6 -32 -5 -59 -13 -30 -23 -38
-51 -44 -20 -3 -39 -4 -42 0 -4 3 4 6 16 6 35 0 58 17 70 52 10 29 9 34 -11
50 -13 10 -29 18 -35 18 -22 0 -14 20 17 47 68 57 9 128 -77 93z m71 -16 c23
-9 20 -21 -6 -27 -21 -6 -21 -7 -5 -25 16 -17 16 -20 2 -25 -9 -4 -15 -1 -15
9 0 9 -12 25 -26 36 -20 16 -23 23 -12 29 15 10 40 11 62 3z m-5 -145 c17 -6
31 -18 31 -26 0 -8 -4 -12 -9 -9 -5 4 -7 -3 -4 -13 3 -13 -2 -23 -16 -31 -21
-10 -21 -9 -15 30 4 27 3 40 -5 40 -6 0 -11 -16 -11 -35 0 -37 -8 -43 -28 -23
-17 17 -15 49 6 64 9 7 17 14 18 14 1 0 15 -5 33 -11z"/>
<path d="M562 1882 c-25 -19 -47 -113 -24 -98 7 4 12 20 12 36 0 19 9 35 25
48 25 20 32 32 18 32 -5 0 -18 -8 -31 -18z"/>
<path d="M835 1830 c4 -6 1 -26 -5 -45 -6 -19 -8 -40 -4 -47 5 -7 12 6 19 33
12 46 9 69 -7 69 -5 0 -6 -5 -3 -10z"/>
<path d="M1030 1820 c-8 -15 -7 -26 1 -42 7 -13 11 -24 10 -26 -2 -2 0 -6 3
-9 12 -12 18 28 6 42 -6 8 -9 23 -5 35 8 26 -1 26 -15 0z"/>
<path d="M868 1777 c-3 -17 -8 -41 -12 -52 -6 -16 -4 -15 13 5 21 26 28 65 12
74 -5 3 -11 -9 -13 -27z"/>
<path d="M580 1770 c0 -16 5 -30 10 -30 6 0 10 14 10 30 0 17 -4 30 -10 30 -5
0 -10 -13 -10 -30z"/>
<path d="M990 1711 c0 -16 4 -32 9 -36 5 -3 9 8 9 25 -1 40 -18 50 -18 11z"/>
<path d="M544 1674 c3 -9 6 -18 6 -20 0 -2 6 -4 14 -4 11 0 13 -9 9 -35 -4
-23 -2 -35 6 -35 6 0 11 18 11 45 0 35 -3 43 -15 39 -9 -4 -15 0 -15 10 0 9
-5 16 -11 16 -6 0 -8 -7 -5 -16z"/>
<path d="M873 1634 c-7 -7 -13 -25 -13 -41 0 -30 10 -23 28 19 13 30 4 43 -15
22z"/>
<path d="M610 1590 c-10 -19 -7 -22 17 -19 3 0 10 -6 15 -15 11 -20 24 -20 32
0 4 12 2 15 -9 10 -8 -3 -15 -1 -15 5 0 6 -7 17 -15 25 -12 13 -15 12 -25 -6z"/>
<path d="M706 1595 c-10 -8 -15 -19 -11 -26 6 -8 10 -7 17 5 9 16 11 16 28 1
17 -15 19 -15 29 2 9 15 12 15 20 4 5 -7 14 -10 20 -7 6 4 14 0 17 -8 3 -9 13
-16 21 -16 11 0 10 6 -7 27 -22 28 -56 37 -77 21 -9 -7 -17 -7 -26 0 -8 7 -18
6 -31 -3z"/>
<path d="M1000 1556 c0 -7 8 -24 19 -37 24 -31 65 -120 62 -136 -1 -7 6 -27
15 -45 22 -43 21 -189 -2 -267 -12 -41 -14 -71 -9 -111 7 -51 8 -98 4 -152 -4
-44 29 -246 45 -276 8 -16 22 -67 29 -113 8 -46 23 -115 32 -152 16 -58 16
-70 4 -81 -17 -17 -96 -29 -103 -17 -3 5 -21 12 -39 15 -37 7 -51 27 -63 92
-4 20 -22 70 -40 109 -32 70 -33 74 -28 174 5 85 3 106 -12 128 -20 31 -27
109 -12 136 7 13 7 22 -1 30 -7 7 -7 16 0 29 12 21 7 84 -11 142 -7 22 -9 58
-6 81 4 23 2 54 -3 68 -7 18 -7 36 -1 52 5 14 6 25 1 25 -16 0 -30 -55 -19
-75 6 -9 8 -41 5 -69 -4 -33 -1 -65 8 -91 18 -48 19 -118 4 -147 -8 -14 -8
-23 -1 -27 7 -4 8 -20 2 -47 -11 -47 -7 -73 14 -106 16 -25 23 -144 11 -190
-5 -20 4 -51 34 -122 23 -53 41 -105 41 -116 0 -36 29 -79 58 -86 15 -4 33
-11 40 -17 23 -18 103 -10 128 14 25 23 24 55 -3 138 -8 25 -18 75 -23 113 -4
37 -17 87 -28 110 -11 24 -23 72 -26 108 l-6 65 77 -1 c75 -2 78 -3 110 -38
18 -19 33 -46 33 -60 0 -41 -21 -48 -115 -42 -109 7 -104 -9 5 -19 66 -6 85
-4 105 9 44 29 31 84 -32 144 -26 24 -40 31 -56 26 -11 -4 -47 -7 -79 -8 l-58
-1 -2 35 c-2 45 -1 68 5 108 3 18 -1 53 -10 77 -14 42 -14 51 6 128 27 102 30
218 7 271 -9 21 -14 41 -11 45 2 4 -5 22 -16 39 -10 18 -19 37 -19 43 0 11
-60 109 -67 109 -2 0 -3 -6 -3 -14z"/>
<path d="M510 1365 c-15 -18 -21 -75 -8 -75 4 0 8 13 8 28 0 15 5 33 12 40 6
6 9 14 6 17 -3 3 -11 -2 -18 -10z"/>
<path d="M479 1263 c-5 -40 -4 -95 3 -99 4 -3 9 7 9 23 3 54 4 58 12 71 5 8 3
12 -7 12 -9 0 -16 -3 -17 -7z"/>
<path d="M710 1161 c0 -94 16 -99 19 -5 1 46 -2 74 -9 74 -6 0 -10 -28 -10
-69z"/>
<path d="M472 1123 c-12 -24 -8 -68 7 -87 7 -8 11 -23 9 -32 -4 -22 -28 -31
-28 -11 0 8 -7 20 -15 27 -9 8 -15 9 -15 2 0 -6 5 -14 10 -17 6 -3 10 -15 10
-26 0 -10 4 -19 9 -19 9 0 22 -83 26 -172 1 -32 7 -64 12 -70 5 -7 10 -45 10
-85 1 -39 4 -81 8 -92 4 -14 2 -21 -6 -21 -7 0 -34 -22 -60 -50 -71 -72 -139
-101 -192 -81 -23 9 -27 16 -27 51 0 42 23 90 44 90 6 0 17 9 24 20 7 11 23
20 37 20 15 0 25 6 25 14 0 26 -20 67 -29 62 -13 -8 -48 38 -61 82 -7 20 -21
61 -33 89 -18 45 -19 56 -8 77 8 13 10 29 7 35 -8 13 63 100 82 101 6 0 12 5
12 11 0 7 10 9 28 4 26 -6 26 -6 9 12 -14 15 -20 16 -35 5 -9 -7 -24 -15 -32
-18 -27 -11 -89 -100 -83 -122 2 -11 0 -22 -5 -26 -13 -8 3 -92 23 -122 8 -13
15 -33 15 -45 0 -30 28 -74 61 -93 31 -18 39 -46 14 -46 -8 0 -24 -9 -35 -20
-11 -11 -24 -20 -29 -20 -16 0 -45 -54 -48 -90 -5 -55 4 -74 38 -87 40 -15
124 6 161 40 13 12 30 22 38 22 8 0 16 10 18 23 2 12 12 27 22 32 16 9 18 8
14 -5 -4 -8 -1 -22 6 -29 9 -11 8 -21 -3 -43 -11 -21 -12 -53 -8 -135 l7 -108
39 -40 c46 -47 77 -51 135 -19 51 29 72 69 70 132 -4 140 -8 216 -13 257 -3
25 -8 92 -11 148 -3 57 -8 107 -11 112 -4 6 -2 10 2 10 5 0 9 52 9 115 -1 63
3 116 7 118 5 1 4 18 -1 37 -9 32 -10 33 -11 8 -1 -15 -4 -29 -8 -31 -8 -5
-10 -218 -4 -417 2 -58 10 -130 17 -160 8 -33 10 -69 6 -90 -4 -19 -4 -58 2
-86 8 -44 6 -57 -11 -86 -24 -41 -87 -78 -117 -69 -13 3 -36 22 -53 41 -29 33
-31 40 -35 143 -3 59 -1 110 3 112 11 7 8 286 -3 308 -5 10 -11 37 -13 60 -2
23 -6 72 -10 109 -5 42 -3 78 4 98 7 23 8 38 0 52 -15 28 -20 76 -8 83 5 4 9
10 9 16 0 15 -19 10 -28 -8z"/>
<path d="M423 903 c4 -38 7 -84 7 -103 0 -24 3 -30 9 -20 5 8 7 35 6 60 -1 25
-2 64 -3 88 -1 24 -7 42 -13 42 -9 0 -10 -20 -6 -67z"/>
<path d="M758 932 c-10 -2 -18 -8 -18 -13 0 -6 9 -7 20 -4 11 4 20 2 20 -4 0
-13 26 -15 34 -3 6 10 -35 28 -56 24z"/>
<path d="M740 821 c0 -22 27 -30 58 -19 18 7 32 16 32 20 0 11 -13 10 -44 -2
-17 -6 -26 -6 -26 0 0 6 -4 10 -10 10 -5 0 -10 -4 -10 -9z"/>
<path d="M771 754 c-12 -15 -21 -38 -20 -53 1 -26 1 -26 11 4 6 17 20 40 31
53 11 12 16 22 9 22 -6 0 -20 -12 -31 -26z"/>
<path d="M822 689 c2 -18 8 -34 15 -36 7 -3 9 3 6 16 -4 16 -1 19 16 14 25 -6
28 12 4 21 -10 3 -24 9 -31 12 -10 5 -13 -2 -10 -27z"/>
<path d="M440 652 c0 -4 11 -23 25 -42 29 -39 34 -27 8 19 -17 29 -33 40 -33
23z"/>
<path d="M880 573 c0 -6 -9 -9 -19 -6 -10 3 -28 0 -38 -6 -12 -6 -24 -6 -29
-1 -12 12 -56 1 -48 -11 3 -5 10 -6 16 -3 6 4 14 1 18 -7 7 -10 14 -10 35 -1
15 7 36 10 46 7 19 -6 38 19 25 32 -3 4 -6 2 -6 -4z"/>
</g>
</svg>
