<?xml version="1.0" standalone="no"?>
<!DOCTYPE svg PUBLIC "-//W3C//DTD SVG 20010904//EN"
 "http://www.w3.org/TR/2001/REC-SVG-20010904/DTD/svg10.dtd">
<svg version="1.0" xmlns="http://www.w3.org/2000/svg"
 width="264.000000pt" height="258.000000pt" viewBox="0 0 264.000000 258.000000"
 preserveAspectRatio="xMidYMid meet">
<metadata>
Created by potrace 1.10, written by Peter Selinger 2001-2011
</metadata>
<g transform="translate(0.000000,258.000000) scale(0.100000,-0.100000)"
fill="#000000" stroke="black" stroke-width="40">
<path d="M860 2461 c-5 -11 -10 -29 -10 -40 0 -12 -4 -21 -8 -21 -15 0 -32
-63 -21 -77 18 -20 29 -16 40 17 12 34 12 34 57 21 23 -7 58 -5 115 5 96 16
209 18 223 4 8 -8 19 -7 38 1 21 10 32 10 47 1 25 -16 50 -15 73 3 23 17 52
11 75 -15 20 -22 73 -40 118 -40 42 0 140 -45 153 -71 6 -10 16 -19 23 -19 48
0 137 -72 137 -110 0 -10 11 -25 25 -34 20 -14 25 -25 25 -61 0 -43 1 -45 48
-69 63 -32 70 -42 76 -107 3 -30 12 -70 19 -89 8 -19 20 -50 26 -67 7 -18 16
-33 20 -33 18 0 30 -40 20 -68 -8 -22 -7 -38 4 -64 9 -22 11 -41 6 -56 -12
-31 25 -105 49 -100 13 3 16 12 15 38 -1 19 -4 79 -5 133 -2 57 -8 101 -15
105 -22 14 -73 136 -73 176 0 23 -5 57 -10 76 -11 40 -64 96 -95 102 -16 2
-21 13 -26 52 -3 32 -12 54 -26 65 -11 9 -31 35 -43 58 -24 43 -86 93 -115 93
-9 0 -28 12 -43 27 -33 34 -91 61 -146 69 -74 9 -121 27 -143 52 -22 26 -22
26 -88 13 -58 -12 -68 -11 -83 2 -13 12 -22 13 -36 5 -11 -6 -41 -8 -70 -4
-49 5 -253 -15 -288 -29 -14 -6 -19 0 -24 34 -6 34 -10 41 -30 41 -13 0 -28
-9 -34 -19z"/>
<path d="M660 2303 c-38 -15 -81 -57 -78 -77 3 -24 38 -35 38 -13 0 10 21 22
56 33 53 17 57 17 66 0 8 -13 13 -15 24 -5 22 18 17 56 -8 63 -28 7 -78 7 -98
-1z"/>
<path d="M1340 2247 c-38 -30 -42 -44 -24 -72 16 -24 16 -29 3 -53 -17 -31
-14 -72 5 -72 30 0 51 41 53 102 1 33 4 62 7 65 7 7 -12 43 -22 43 -4 0 -14
-6 -22 -13z"/>
<path d="M561 2155 c-17 -20 -31 -42 -31 -50 0 -15 -126 -188 -141 -193 -15
-6 -10 -59 6 -66 11 -4 15 -21 15 -62 0 -48 -5 -62 -31 -95 -29 -37 -31 -61
-6 -58 43 5 46 -5 18 -65 -11 -23 -27 -59 -36 -81 -9 -22 -20 -49 -25 -60 -5
-11 -10 -46 -13 -77 -3 -44 -13 -73 -45 -129 -23 -39 -42 -85 -42 -100 0 -26
4 -29 30 -29 l30 0 0 -78 c0 -71 -3 -82 -29 -118 -16 -22 -33 -52 -36 -67 -4
-15 -11 -27 -16 -27 -25 0 6 -120 49 -193 12 -21 22 -45 22 -52 0 -15 79 -134
127 -193 15 -18 51 -49 81 -68 l53 -36 34 27 c32 24 38 25 77 15 37 -10 44
-10 55 6 7 10 13 23 13 30 0 18 -24 34 -39 25 -8 -5 -30 -7 -50 -4 -27 4 -42
0 -60 -16 -29 -25 -35 -26 -51 -6 -7 8 -18 15 -24 15 -27 1 -124 138 -189 270
-34 69 -42 96 -42 140 0 44 5 60 23 80 39 41 56 106 55 209 0 47 -3 57 -26 76
-29 22 -35 49 -14 62 28 18 49 70 68 166 11 56 24 104 29 105 6 2 10 11 10 20
0 10 8 31 17 47 11 20 17 56 18 108 0 45 6 82 13 89 18 18 15 111 -4 145 -16
28 -16 29 17 64 44 48 48 53 93 129 49 82 61 92 91 78 28 -13 55 -5 55 17 0
19 -39 35 -85 35 -25 0 -40 -8 -64 -35z"/>
<path d="M930 1840 c-13 -11 -33 -20 -45 -20 -27 0 -35 -8 -28 -26 3 -9 21
-14 53 -14 35 0 52 -5 66 -21 17 -18 19 -19 30 -4 9 12 9 25 1 53 -17 57 -38
66 -77 32z"/>
<path d="M1447 1769 c-29 -22 -34 -50 -17 -94 11 -28 30 -25 30 5 0 11 12 25
28 32 32 16 35 45 6 64 -18 13 -24 12 -47 -7z"/>
<path d="M500 1721 c0 -5 -3 -16 -6 -24 -3 -10 3 -18 18 -22 13 -4 32 -16 43
-26 30 -27 65 -15 65 22 0 24 -4 29 -24 29 -13 0 -29 7 -36 15 -14 16 -60 21
-60 6z"/>
<path d="M732 1707 c-31 -32 -32 -107 -2 -107 11 0 23 8 26 18 3 9 12 30 20
45 31 62 1 92 -44 44z"/>
<path d="M1110 1708 c-18 -13 -42 -42 -54 -65 -25 -50 -56 -59 -56 -15 -1 38
-29 70 -71 77 -29 5 -41 2 -67 -20 -18 -15 -32 -33 -32 -40 0 -7 -7 -18 -16
-25 -8 -8 -14 -25 -12 -39 3 -25 5 -26 74 -26 46 0 77 -5 88 -14 13 -11 22
-11 39 -3 12 6 31 12 41 14 12 2 23 15 28 33 17 66 65 94 106 62 7 -5 35 -7
64 -4 45 6 55 3 75 -15 16 -15 34 -21 55 -20 31 3 31 2 24 -39 -7 -45 5 -69
34 -69 25 0 34 29 15 50 -9 9 -13 24 -9 33 8 22 -13 57 -36 57 -11 0 -35 14
-55 31 -33 30 -39 31 -90 25 -48 -5 -54 -4 -60 14 -8 27 -44 26 -85 -2z m-168
-83 c0 -5 -5 -11 -11 -13 -6 -2 -11 4 -11 13 0 9 5 15 11 13 6 -2 11 -8 11
-13z"/>
<path d="M1523 1658 c-52 -38 -58 -96 -14 -138 26 -23 39 -27 95 -28 72 -1 71
-2 67 68 -5 63 -54 120 -104 120 -7 0 -27 -10 -44 -22z m57 -58 c0 -12 -40
-34 -47 -26 -9 8 17 36 33 36 8 0 14 -4 14 -10z"/>
<path d="M670 1521 c-14 -4 -26 -15 -28 -26 -3 -20 -61 -65 -84 -65 -19 0 -68
-52 -68 -71 0 -10 8 -22 17 -27 19 -11 16 -17 -86 -139 -6 -6 -13 -24 -16 -40
-4 -15 -11 -38 -17 -50 -13 -27 9 -66 50 -87 27 -14 28 -15 29 -122 1 -59 7
-112 13 -118 5 -5 10 -17 10 -26 0 -16 77 -140 106 -169 11 -12 16 -12 28 -1
22 18 20 35 -9 67 -38 43 -40 46 -59 83 -25 51 -39 115 -42 202 -3 84 -12 110
-49 134 -14 9 -25 25 -25 36 0 21 38 90 52 96 4 2 8 9 8 16 0 7 16 27 35 46
30 29 35 40 32 74 -2 39 -1 40 51 67 29 14 66 39 83 55 27 26 36 28 120 31 50
2 105 0 121 -6 27 -10 29 -9 22 12 -3 12 -7 23 -8 23 -6 6 -267 10 -286 5z"/>
<path d="M1595 1450 c-12 -19 41 -75 96 -102 30 -15 69 -38 87 -51 42 -32 91
-100 99 -138 3 -16 10 -32 14 -35 5 -3 9 -13 9 -22 0 -9 6 -28 13 -42 23 -43
41 -230 27 -281 -16 -63 -35 -101 -64 -130 -29 -28 -38 -36 -114 -117 -32 -32
-64 -61 -72 -64 -13 -4 -13 -7 -1 -21 7 -10 21 -17 31 -17 18 0 109 84 137
126 8 13 22 26 31 29 22 6 78 91 86 132 4 17 13 37 21 43 10 8 12 27 9 63 -9
90 -36 252 -44 262 -4 6 -11 26 -14 45 -8 40 -37 100 -48 100 -5 0 -8 6 -8 14
0 30 -95 112 -172 150 -42 20 -79 43 -82 51 -6 17 -32 20 -41 5z"/>
<path d="M2030 1377 c0 -12 10 -33 23 -47 58 -64 110 -197 87 -225 -6 -8 -18
-11 -26 -8 -18 7 -34 -34 -27 -71 4 -18 -1 -34 -13 -49 -40 -47 -56 -98 -35
-111 4 -3 27 11 50 30 33 29 41 42 41 70 0 24 8 43 25 60 60 60 11 284 -79
356 -29 24 -46 22 -46 -5z"/>
<path d="M2233 1319 c-8 -8 -8 -18 -1 -34 8 -17 6 -29 -7 -49 -17 -25 -17 -27
0 -46 14 -15 16 -29 10 -69 -7 -50 -6 -51 29 -72 20 -11 36 -24 36 -28 0 -8
13 -22 85 -91 45 -44 46 -46 40 -90 -4 -25 -11 -70 -15 -100 -17 -118 -53
-213 -107 -286 -13 -17 -28 -46 -35 -65 -16 -49 -68 -119 -100 -135 -22 -12
-32 -12 -47 -2 -16 10 -27 10 -54 0 -47 -17 -52 -16 -85 18 -17 17 -37 30 -45
30 -18 0 -27 21 -27 60 0 41 -20 80 -42 80 -16 0 -18 -9 -18 -65 0 -52 5 -72
22 -95 12 -17 30 -30 39 -30 10 0 34 -17 54 -37 36 -37 36 -37 80 -25 24 6 64
9 87 6 34 -5 48 -2 66 15 13 11 27 21 30 23 14 6 70 84 77 107 8 25 64 122 76
131 25 19 79 194 79 258 0 18 4 41 9 50 4 9 11 41 15 71 l7 54 -108 103 c-97
94 -106 106 -95 124 6 10 9 25 6 33 -3 8 2 19 9 26 12 9 13 20 5 51 -6 22 -14
40 -18 40 -4 0 -12 11 -18 25 -13 27 -22 31 -39 14z"/>
<path d="M1033 1194 c-59 -26 -66 -35 -82 -102 -15 -60 -8 -100 20 -120 10 -7
19 -19 19 -25 0 -7 9 -22 18 -35 17 -22 19 -22 32 -7 10 12 11 21 3 33 -8 14
-3 23 26 50 l36 34 -52 48 c-29 26 -49 50 -46 54 4 3 19 6 34 6 15 0 29 7 33
15 13 35 168 6 205 -39 14 -17 14 -18 -39 -30 -14 -4 -38 -17 -55 -31 l-29
-24 27 -25 c14 -13 37 -32 49 -41 14 -10 18 -19 11 -22 -6 -2 -21 -13 -34 -24
-32 -27 -49 -9 -49 52 0 48 -1 49 -30 49 -28 0 -30 -2 -30 -41 0 -32 -4 -42
-20 -46 -23 -6 -26 -18 -7 -30 19 -12 57 -70 57 -87 0 -8 -8 -17 -19 -21 -10
-3 -26 -14 -35 -24 -13 -14 -26 -17 -60 -14 -45 6 -68 -9 -47 -30 16 -16 14
-42 -4 -57 -8 -7 -15 -22 -15 -34 0 -44 31 -141 51 -159 15 -14 19 -27 15 -48
-4 -24 0 -30 30 -48 28 -17 52 -21 120 -21 49 0 84 4 84 10 0 6 10 10 22 10
12 0 39 12 60 26 33 23 38 32 38 64 0 24 5 40 15 44 8 3 15 17 15 31 0 14 6
28 14 31 8 3 17 16 20 30 4 13 11 24 16 24 6 0 10 7 10 15 0 8 7 15 15 15 9 0
15 9 15 22 0 12 7 30 16 40 14 14 14 20 4 33 -11 14 -16 13 -47 -5 -44 -26
-51 -25 -63 5 -6 15 -17 25 -30 25 -23 0 -24 -4 -8 -29 6 -10 8 -26 4 -36 -9
-25 -55 -11 -87 28 -23 27 -34 32 -73 33 -52 2 -65 9 -48 26 7 7 12 26 12 44
0 27 4 32 32 38 18 3 47 22 67 44 63 65 71 82 71 148 0 53 -3 63 -27 86 -70
65 -186 83 -280 42z m121 -459 c13 -9 28 -15 32 -14 5 1 22 -3 38 -10 21 -8
27 -16 23 -31 -4 -16 -2 -17 20 -9 13 5 26 9 29 9 11 0 2 -101 -13 -131 -18
-38 -79 -99 -98 -99 -22 0 -23 10 -9 83 8 40 11 91 8 115 -6 38 -9 42 -28 36
-11 -4 -22 -7 -23 -8 -1 -1 -3 -45 -4 -98 -1 -54 -5 -102 -9 -108 -4 -7 -16
-7 -37 0 -41 15 -71 78 -68 145 3 67 2 65 25 65 10 0 32 16 47 35 32 40 35 41
67 20z m252 -69 c17 -13 18 -17 5 -38 -29 -47 -81 -149 -78 -156 1 -4 -5 -17
-13 -29 -35 -48 -230 -84 -238 -43 -2 12 9 14 62 12 67 -4 68 -4 127 50 37 33
69 93 69 130 0 15 5 30 10 33 6 3 10 17 10 31 0 27 17 31 46 10z"/>
<path d="M799 1092 c-54 -35 -65 -49 -110 -143 -7 -15 -12 -97 -10 -156 1 -13
7 -23 16 -23 20 0 48 46 42 69 -7 29 12 130 30 157 9 14 28 31 42 39 38 19 81
62 81 80 0 24 -31 17 -91 -23z"/>
<path d="M1608 949 c-13 -7 -14 -15 -6 -48 8 -31 6 -47 -7 -77 -9 -22 -23 -54
-31 -72 -19 -45 -18 -75 6 -105 33 -42 51 -26 44 39 -5 38 -3 60 8 76 51 81
41 218 -14 187z"/>
<path d="M2202 933 c-16 -6 -52 -80 -52 -108 0 -11 14 -37 30 -57 25 -31 29
-41 21 -57 -14 -25 -4 -51 20 -51 20 0 49 46 49 78 0 10 -13 31 -30 47 -33 31
-37 57 -15 95 26 46 17 69 -23 53z"/>
<path d="M1706 833 c-4 -9 -4 -36 0 -60 5 -38 2 -50 -30 -104 -36 -60 -43 -84
-28 -93 13 -8 47 27 81 82 39 66 47 155 16 178 -24 18 -31 18 -39 -3z"/>
<path d="M846 818 c-16 -23 -20 -92 -7 -137 7 -26 36 -50 46 -39 4 4 7 48 8
100 2 79 0 93 -15 96 -9 2 -23 -7 -32 -20z"/>
<path d="M2064 629 c-4 -7 -9 -42 -12 -79 -4 -66 -4 -67 28 -90 26 -19 34 -20
41 -9 12 20 11 27 -8 60 -15 25 -15 33 -4 66 12 33 12 38 -5 50 -22 16 -31 16
-40 2z"/>
<path d="M1486 501 c-10 -15 12 -59 32 -65 10 -4 28 -24 38 -46 21 -45 37 -55
54 -35 17 21 1 61 -44 110 -41 43 -68 56 -80 36z"/>
<path d="M716 484 c-4 -9 -1 -33 5 -53 7 -20 13 -42 15 -48 2 -8 20 -13 44
-13 36 0 40 -3 40 -24 0 -14 -5 -28 -11 -31 -7 -5 -4 -13 7 -26 13 -14 15 -29
11 -62 -6 -45 3 -72 23 -65 14 4 23 237 10 258 -5 9 -17 10 -36 4 -46 -13 -49
-11 -46 34 3 41 3 42 -26 42 -18 0 -32 -6 -36 -16z"/>
<path d="M1728 351 c-7 -10 -22 -20 -33 -22 -17 -4 -20 -14 -23 -78 -4 -100 2
-114 34 -78 13 15 24 37 24 49 0 11 12 42 26 69 22 40 25 51 14 64 -16 20 -26
19 -42 -4z"/>
<path d="M935 240 c-8 -16 -15 -36 -15 -44 0 -8 -7 -19 -17 -24 -23 -14 -9
-45 17 -37 14 4 20 2 20 -9 0 -23 22 -31 35 -13 19 26 31 20 48 -23 21 -54 48
-54 83 1 31 49 21 72 -20 45 -37 -24 -46 -20 -46 19 0 29 -5 37 -25 45 -19 7
-25 17 -25 40 0 41 -34 41 -55 0z"/>
<path d="M1384 230 c-15 -22 -30 -40 -35 -40 -4 0 -24 16 -45 35 -20 19 -40
35 -45 35 -4 0 -18 -13 -32 -29 -18 -22 -31 -28 -46 -24 -18 5 -21 1 -21 -25
0 -35 39 -69 59 -49 6 6 11 16 11 22 0 7 8 20 19 29 18 16 20 15 43 -12 37
-44 58 -53 85 -35 13 8 23 24 23 34 0 20 35 44 50 34 6 -3 10 -17 10 -30 0
-15 9 -29 22 -36 18 -10 24 -9 37 8 15 19 17 18 54 -29 28 -36 44 -48 60 -46
34 5 30 49 -7 66 -19 10 -36 32 -53 71 -14 31 -27 58 -30 61 -3 3 -15 -8 -28
-24 -20 -25 -26 -28 -39 -17 -9 8 -16 20 -16 27 0 8 -10 14 -25 14 -18 0 -32
-11 -51 -40z"/>
</g>
</svg>
